<?xml version="1.0" encoding="UTF-8"?>
<svg width="600px" height="600px" viewBox="0 0 600 600" version="1.1" xmlns="http://www.w3.org/2000/svg" xmlns:xlink="http://www.w3.org/1999/xlink">
    <!-- Generator: Sketch 51 (57462) - http://www.bohemiancoding.com/sketch -->
    <title>metro-logo</title>
    <desc>Created with Sketch.</desc>
    <defs></defs>
    <g id="metro-logo" stroke="none" stroke-width="1" fill="none" fill-rule="evenodd">
        <g id="metro" transform="translate(27.000000, 0.000000)" fill-rule="nonzero">
            <path d="M6.79520877e-15,194.473994 C6.79520877e-15,165.732395 20.4274355,130.60802 45.1775306,116.27544 L228.106363,10.7494347 C252.971219,-3.58314489 293.634822,-3.58314489 318.499678,10.7494347 L501.428511,116.27544 C526.293367,130.60802 546.644295,165.961716 546.644295,194.473994 L546.644295,405.526006 C546.644295,434.191165 526.293367,469.39198 501.428511,483.72456 L318.499678,589.250565 C293.634822,603.583145 252.971219,603.583145 228.106363,589.250565 L45.1775306,483.72456 C20.3509283,469.39198 0,434.038284 0,405.526006 L6.79520877e-15,194.473994 Z" id="Shape" fill="#EF4242"></path>
            <path d="M272.876197,541.608346 C265.488883,541.686225 258.208513,539.842591 251.751308,536.258815 L81.4893029,438.094931 C68.7136915,430.292234 60.7739187,416.552063 60.4026846,401.60349 L60.4026846,205.313932 C60.7739187,190.365359 68.7136915,176.625188 81.4893029,168.822492 L251.789578,70.6586068 C264.955326,63.6954532 280.720527,63.6954532 293.886275,70.6586068 L464.148281,168.822492 C476.934363,176.614994 484.877745,190.361411 485.234899,205.313932 L485.234899,401.60349 C484.878953,416.546518 476.952731,430.288178 464.186551,438.094931 L293.962815,536.258815 C287.519535,539.842751 280.251415,541.686623 272.876197,541.608346 Z M105.637499,399.883998 L272.876197,496.29018 L440.114894,399.883998 L440.114894,207.033424 L272.876197,110.627242 L105.637499,207.033424 L105.637499,399.883998 Z" id="Shape" fill="#FFFFFF"></path>
            <path d="M273.245849,491.275168 C268.794432,491.274693 264.421568,490.100865 260.566801,487.871673 L71.1066889,378.347987 C63.2406002,373.809474 58.3921171,365.411575 58.3894509,356.320877 L58.3894509,137.273506 C58.3539085,128.031085 63.3288892,119.496988 71.3834871,114.983496 C79.4380849,110.470005 89.3040623,110.687791 97.1522032,115.552328 L273.436799,222.628557 L449.721394,115.552328 C457.557865,110.809155 467.337481,110.657511 475.31686,115.155441 C483.296238,119.653371 488.239696,128.104328 488.255007,137.273506 L488.255007,356.320877 C488.268107,365.405796 483.433126,373.805533 475.575959,378.347987 L285.924897,487.871673 C282.066694,490.092549 277.696088,491.265771 273.245849,491.275168 Z M109.143833,341.597896 L273.360419,436.475083 L437.577005,341.597896 L437.577005,182.436729 L286.688695,274.216355 C278.596997,279.15379 268.42936,279.15379 260.337662,274.216355 L109.411162,182.436729 L109.143833,341.597896 Z" id="Shape" fill="#EF4242"></path>
            <path d="M485.120142,412.751678 L439.943945,412.751678 L439.943945,233.910204 L284.485803,328.242488 C277.287798,332.635564 268.235028,332.635564 261.037023,328.242488 L105.617134,233.910204 L105.617134,412.751678 L60.4026846,412.751678 L60.4026846,193.776939 C60.4791157,185.635679 64.9268459,178.163101 72.0495496,174.209182 C79.1722533,170.255263 87.8716748,170.42966 94.8299305,174.66586 L272.780539,282.528788 L450.807653,174.474749 C457.762072,170.212368 466.475387,170.024682 473.607175,173.983645 C480.738964,177.942607 485.182742,185.433992 485.234899,193.585828 L485.120142,412.751678 Z" id="Shape" fill="#FFFFFF"></path>
        </g>
    </g>
</svg>