<?xml version="1.0" encoding="UTF-8"?>
<svg width="200px" height="200px" viewBox="0 0 200 200" version="1.1" xmlns="http://www.w3.org/2000/svg" xmlns:xlink="http://www.w3.org/1999/xlink">
    <!-- Generator: Sketch 43.2 (39069) - http://www.bohemiancoding.com/sketch -->
    <title>rn-dom-logo-large</title>
    <desc>Created with Sketch.</desc>
    <defs></defs>
    <g id="Page-1" stroke="none" stroke-width="1" fill="none" fill-rule="evenodd">
        <g id="rn-dom-logo-large" fill="#D063FB">
            <path d="M55.2117287,138.412263 C57.2691831,131.768266 59.9639656,124.783548 63.2530622,117.647064 C59.9639663,110.510571 57.2691823,103.52585 55.2117272,96.8818495 C37.2604314,101.847655 25.6923077,109.56722 25.6923077,117.647059 C25.6923077,125.726898 37.2604314,133.446462 55.2117315,138.412254 Z M144.788271,96.8818542 C142.730817,103.525852 140.036034,110.510569 136.746938,117.647053 C140.036034,124.783546 142.730818,131.768268 144.788273,138.412268 C162.739569,133.446462 174.307692,125.726898 174.307692,117.647059 C174.307692,109.56722 162.739569,101.847655 144.788268,96.8818636 Z M66.9722572,110.01038 C68.4683357,107.094786 70.0588356,104.165365 71.7409249,101.234559 C79.064997,88.473384 87.2346616,77.2380664 95.4826529,68.2457925 C82.2319378,55.0898799 69.8020951,48.8717405 62.8461538,52.9116599 C53.3783699,58.4104246 55.2008255,82.2459604 66.9722572,110.01038 Z M133.027743,125.283738 C131.531664,128.199332 129.941164,131.128753 128.259075,134.059559 C120.935003,146.820734 112.765338,158.056051 104.517347,167.048325 C117.768062,180.204238 130.197905,186.422377 137.153846,182.382458 C146.62163,176.883693 144.799175,153.048157 133.027743,125.283738 Z M0,41.1764706 L200,41.1764706 L200,184.007488 C200,192.839909 192.837689,200 183.992272,200 L16.0077278,200 C7.16690386,200 0,192.84116 0,184.007488 L0,41.1764706 Z M77.3367814,104.484559 C56.7605807,140.335721 51.0700707,175.543063 62.8461538,182.382458 C74.622237,189.221852 102.087018,166.660721 122.663219,130.809559 C143.239419,94.9583969 148.929929,59.7510545 137.153846,52.9116599 C125.377763,46.0722653 97.912982,68.6333969 77.3367814,104.484559 Z M100,132.082475 C92.0192923,132.082475 85.5496503,125.619519 85.5496503,117.647059 C85.5496503,109.674598 92.0192923,103.211642 100,103.211642 C107.980708,103.211642 114.45035,109.674598 114.45035,117.647059 C114.45035,125.619519 107.980708,132.082475 100,132.082475 Z M0,16.0083146 C0,7.16716657 7.16231056,-3.55271368e-15 16.0077278,-3.55271368e-15 L183.992272,-3.55271368e-15 C192.833096,-3.55271368e-15 200,7.1723938 200,16.0083146 L200,41.1764706 L0,41.1764706 L0,16.0083146 Z M26.4705882,29.4117647 C31.343689,29.4117647 35.2941176,25.461336 35.2941176,20.5882353 C35.2941176,15.7151346 31.343689,11.7647059 26.4705882,11.7647059 C21.5974875,11.7647059 17.6470588,15.7151346 17.6470588,20.5882353 C17.6470588,25.461336 21.5974875,29.4117647 26.4705882,29.4117647 Z M50,29.4117647 C54.8731007,29.4117647 58.8235294,25.461336 58.8235294,20.5882353 C58.8235294,15.7151346 54.8731007,11.7647059 50,11.7647059 C45.1268993,11.7647059 41.1764706,15.7151346 41.1764706,20.5882353 C41.1764706,25.461336 45.1268993,29.4117647 50,29.4117647 Z M73.5294118,29.4117647 C78.4025125,29.4117647 82.3529412,25.461336 82.3529412,20.5882353 C82.3529412,15.7151346 78.4025125,11.7647059 73.5294118,11.7647059 C68.656311,11.7647059 64.7058824,15.7151346 64.7058824,20.5882353 C64.7058824,25.461336 68.656311,29.4117647 73.5294118,29.4117647 Z" id="Combined-Shape"></path>
        </g>
    </g>
</svg>