<?xml version="1.0" encoding="UTF-8"?>
<svg width="34px" height="34px" viewBox="0 0 34 34" version="1.1" xmlns="http://www.w3.org/2000/svg" xmlns:xlink="http://www.w3.org/1999/xlink">
    <!-- Generator: Sketch 43.2 (39069) - http://www.bohemiancoding.com/sketch -->
    <title>rn-dom-logo</title>
    <desc>Created with Sketch.</desc>
    <defs></defs>
    <g id="Page-1" stroke="none" stroke-width="1" fill="none" fill-rule="evenodd">
        <path d="M9.38599436,23.5300832 C9.73576164,22.4006038 10.1938747,21.213202 10.753021,20 C10.1938747,18.786798 9.73576164,17.5993962 9.38599436,16.4699168 C6.33427335,17.3141014 4.36769231,18.6264274 4.36769231,20 C4.36769231,21.3735726 6.33427335,22.6858986 9.38599436,23.5300832 Z M24.6140056,16.4699168 C24.2642384,17.5993962 23.8061253,18.786798 23.246979,20 C23.8061253,21.213202 24.2642384,22.4006038 24.6140056,23.5300832 C27.6657267,22.6858986 29.6323077,21.3735726 29.6323077,20 C29.6323077,18.6264274 27.6657267,17.3141014 24.6140056,16.4699168 Z M11.3852837,18.7017645 C11.6396171,18.2061136 11.9100021,17.708112 12.1959572,17.209875 C13.441049,15.0404761 14.8298914,13.1304728 16.2320493,11.6017866 C13.9794294,9.36527958 11.8663562,8.30819588 10.6838462,8.99498218 C9.07432289,9.92977218 9.38414033,13.9818133 11.3852837,18.7017645 Z M22.6147163,21.2982355 C22.3603829,21.7938864 22.0899979,22.291888 21.8040428,22.790125 C20.558951,24.9595239 19.1701086,26.8695272 17.7679507,28.3982134 C20.0205706,30.6347204 22.1336438,31.6918041 23.3161538,31.0050178 C24.9256771,30.0702278 24.6158597,26.0181867 22.6147163,21.2982355 Z M0,7 L34,7 L34,30.0015293 C34,32.2098237 32.2079681,34 29.9997876,34 L4.00021236,34 C1.79095608,34 0,32.2075447 0,30.0015293 L0,7 Z M13.1472528,17.762375 C9.64929872,23.8570725 8.68191201,29.8423207 10.6838462,31.0050178 C12.6857803,32.1677149 17.3547931,28.3323225 20.8527472,22.237625 C24.3507013,16.1429275 25.318088,10.1576793 23.3161538,8.99498218 C21.3142197,7.8322851 16.6452069,11.6676775 13.1472528,17.762375 Z M17,22.4540208 C15.6432797,22.4540208 14.5434406,21.3553183 14.5434406,20 C14.5434406,18.6446817 15.6432797,17.5459792 17,17.5459792 C18.3567203,17.5459792 19.4565594,18.6446817 19.4565594,20 C19.4565594,21.3553183 18.3567203,22.4540208 17,22.4540208 Z M0,3.5 C0,1.56700338 1.57170124,-3.55271368e-15 3.49466128,-3.55271368e-15 L30.5053387,-3.55271368e-15 C32.4353869,-3.55271368e-15 34,1.57093664 34,3.5 L34,7 L0,7 L0,3.5 Z M4.5,5 C5.32842712,5 6,4.32842712 6,3.5 C6,2.67157288 5.32842712,2 4.5,2 C3.67157288,2 3,2.67157288 3,3.5 C3,4.32842712 3.67157288,5 4.5,5 Z M8.5,5 C9.32842712,5 10,4.32842712 10,3.5 C10,2.67157288 9.32842712,2 8.5,2 C7.67157288,2 7,2.67157288 7,3.5 C7,4.32842712 7.67157288,5 8.5,5 Z M12.5,5 C13.3284271,5 14,4.32842712 14,3.5 C14,2.67157288 13.3284271,2 12.5,2 C11.6715729,2 11,2.67157288 11,3.5 C11,4.32842712 11.6715729,5 12.5,5 Z" id="Combined-Shape" fill="#D063FB"></path>
        <g id="rn-dom-logo"></g>
    </g>
</svg>