<?xml version="1.0" encoding="UTF-8"?>
<svg width="600px" height="600px" viewBox="0 0 600 600" version="1.1" xmlns="http://www.w3.org/2000/svg" xmlns:xlink="http://www.w3.org/1999/xlink">
    <!-- Generator: Sketch 51 (57462) - http://www.bohemiancoding.com/sketch -->
    <title>yoga</title>
    <desc>Created with Sketch.</desc>
    <defs></defs>
    <g id="Page-1" stroke="none" stroke-width="1" fill="none" fill-rule="evenodd">
        <g id="yoga">
            <circle id="Oval" fill="#303846" fill-rule="nonzero" cx="300" cy="300" r="300"></circle>
            <g id="Group" transform="translate(163.162162, 214.864865)" stroke="#97DCCF" stroke-width="20">
                <path d="M139.27027,209.189189 C163.189189,167.432432 164.810811,114.72973 139.27027,70.1351351 C113.72973,25.5405405 66.7027027,0.810810811 18.8648649,0.810810811 C-5.05405405,42.5675676 -6.67567568,95.2702703 18.8648649,139.864865 C44.4054054,184.054054 91.027027,209.189189 139.27027,209.189189 Z" id="Shape"></path>
                <path d="M134.405405,209.189189 C182.243243,209.189189 228.864865,184.459459 254.810811,139.864865 C280.351351,95.2702703 278.72973,42.5675676 254.810811,0.810810811 C206.972973,0.810810811 160.351351,25.5405405 134.405405,70.1351351 C108.864865,114.72973 110.486486,167.432432 134.405405,209.189189 Z" id="Shape"></path>
            </g>
            <path d="M300,419.189189 C341.351351,395.27027 369.324324,350.27027 369.324324,298.783784 C369.324324,247.297297 341.351351,202.297297 300,178.378378 C258.648649,202.297297 230.675676,247.297297 230.675676,298.783784 C230.675676,350.27027 258.648649,395.27027 300,419.189189 Z" id="Shape" stroke="#97DCCF" stroke-width="20"></path>
        </g>
    </g>
</svg>